<svg width="123" height="26" viewBox="0 0 123 26" fill="none" xmlns="http://www.w3.org/2000/svg">
<g clip-path="url(#clip0_4228_1018)">
<path fill-rule="evenodd" clip-rule="evenodd" d="M12.8619 21.8954C11.6945 21.8954 10.5781 21.6748 9.55404 21.2712L5.87842 23.6625C7.88879 24.9657 10.2877 25.7219 12.8619 25.7219C17.6219 25.7219 21.7785 23.1363 24.0019 19.2929L20.6884 17.3787C19.125 20.0793 16.2056 21.8954 12.8619 21.8954Z" fill="#1572D3"/>
<path fill-rule="evenodd" clip-rule="evenodd" d="M4.27734 3.28333L8.06235 12.8619L4.27734 22.4385L10.2538 18.5497L19.0006 12.8619L10.2538 7.17207L4.27734 3.28333Z" fill="#1572D3"/>
<path fill-rule="evenodd" clip-rule="evenodd" d="M12.862 3.82651C16.2057 3.82651 19.1251 5.64264 20.6885 8.34326L24.002 6.42906C21.7766 2.58558 17.622 0 12.862 0C10.2858 0 7.88885 0.756249 5.87659 2.05941L9.5541 4.45074C10.5781 4.04716 11.6927 3.82651 12.862 3.82651Z" fill="#1572D3"/>
<path fill-rule="evenodd" clip-rule="evenodd" d="M2.82885 20.9091L4.58274 16.4847L6.0198 12.86L4.58274 9.23721L2.82885 4.81287C1.05988 7.01561 0 9.81429 0 12.8619C0 15.9077 1.05988 18.7064 2.82885 20.9091Z" fill="#1572D3"/>
</g>
<path d="M32.56 12.761C32.56 11.6623 32.8053 10.681 33.296 9.81696C33.7973 8.94229 34.4747 8.26496 35.328 7.78496C36.192 7.29429 37.1573 7.04896 38.224 7.04896C39.472 7.04896 40.5653 7.36896 41.504 8.00896C42.4427 8.64896 43.0987 9.53429 43.472 10.665H40.896C40.64 10.1316 40.2773 9.73163 39.808 9.46496C39.3493 9.19829 38.816 9.06496 38.208 9.06496C37.5573 9.06496 36.976 9.21963 36.464 9.52896C35.9627 9.82763 35.568 10.2543 35.28 10.809C35.0027 11.3636 34.864 12.0143 34.864 12.761C34.864 13.497 35.0027 14.1476 35.28 14.713C35.568 15.2676 35.9627 15.6996 36.464 16.009C36.976 16.3076 37.5573 16.457 38.208 16.457C38.816 16.457 39.3493 16.3236 39.808 16.057C40.2773 15.7796 40.64 15.3743 40.896 14.841H43.472C43.0987 15.9823 42.4427 16.873 41.504 17.513C40.576 18.1423 39.4827 18.457 38.224 18.457C37.1573 18.457 36.192 18.217 35.328 17.737C34.4747 17.2463 33.7973 16.569 33.296 15.705C32.8053 14.841 32.56 13.8596 32.56 12.761ZM50.3773 9.36896C51.0493 9.36896 51.6466 9.51829 52.1693 9.81696C52.6919 10.105 53.0973 10.537 53.3853 11.113C53.6839 11.6783 53.8333 12.361 53.8333 13.161V18.361H51.5933V13.465C51.5933 12.761 51.4173 12.2223 51.0653 11.849C50.7133 11.465 50.2333 11.273 49.6253 11.273C49.0066 11.273 48.5159 11.465 48.1533 11.849C47.8013 12.2223 47.6253 12.761 47.6253 13.465V18.361H45.3853V6.52096H47.6253V10.601C47.9133 10.217 48.2973 9.91829 48.7773 9.70496C49.2573 9.48096 49.7906 9.36896 50.3773 9.36896ZM55.3874 13.897C55.3874 13.001 55.5634 12.2063 55.9154 11.513C56.278 10.8196 56.7634 10.2863 57.3714 9.91296C57.99 9.53963 58.678 9.35296 59.4354 9.35296C60.0967 9.35296 60.6727 9.48629 61.1634 9.75296C61.6647 10.0196 62.0647 10.3556 62.3634 10.761V9.49696H64.6194V18.361H62.3634V17.065C62.0754 17.481 61.6754 17.8276 61.1634 18.105C60.662 18.3716 60.0807 18.505 59.4194 18.505C58.6727 18.505 57.99 18.313 57.3714 17.929C56.7634 17.545 56.278 17.0063 55.9154 16.313C55.5634 15.609 55.3874 14.8036 55.3874 13.897ZM62.3634 13.929C62.3634 13.385 62.2567 12.921 62.0434 12.537C61.83 12.1423 61.542 11.8436 61.1794 11.641C60.8167 11.4276 60.4274 11.321 60.0114 11.321C59.5954 11.321 59.2114 11.4223 58.8594 11.625C58.5074 11.8276 58.2194 12.1263 57.9954 12.521C57.782 12.905 57.6754 13.3636 57.6754 13.897C57.6754 14.4303 57.782 14.8996 57.9954 15.305C58.2194 15.6996 58.5074 16.0036 58.8594 16.217C59.222 16.4303 59.606 16.537 60.0114 16.537C60.4274 16.537 60.8167 16.4356 61.1794 16.233C61.542 16.0196 61.83 15.721 62.0434 15.337C62.2567 14.9423 62.3634 14.473 62.3634 13.929ZM67.9431 8.44096C67.5485 8.44096 67.2178 8.3183 66.9511 8.07296C66.6951 7.81696 66.5671 7.50229 66.5671 7.12896C66.5671 6.75563 66.6951 6.44629 66.9511 6.20096C67.2178 5.94496 67.5485 5.81696 67.9431 5.81696C68.3378 5.81696 68.6631 5.94496 68.9191 6.20096C69.1858 6.44629 69.3191 6.75563 69.3191 7.12896C69.3191 7.50229 69.1858 7.81696 68.9191 8.07296C68.6631 8.3183 68.3378 8.44096 67.9431 8.44096ZM69.0471 9.49696V18.361H66.8071V9.49696H69.0471ZM76.1723 9.36896C77.2283 9.36896 78.0816 9.70496 78.7323 10.377C79.3829 11.0383 79.7083 11.9663 79.7083 13.161V18.361H77.4683V13.465C77.4683 12.761 77.2923 12.2223 76.9403 11.849C76.5883 11.465 76.1083 11.273 75.5003 11.273C74.8816 11.273 74.3909 11.465 74.0283 11.849C73.6763 12.2223 73.5003 12.761 73.5003 13.465V18.361H71.2603V9.49696H73.5003V10.601C73.7989 10.217 74.1776 9.91829 74.6363 9.70496C75.1056 9.48096 75.6176 9.36896 76.1723 9.36896Z" fill="#1572D3"/>
<path d="M85.7424 7.19296C86.9157 7.19296 87.945 7.42229 88.8304 7.88096C89.7264 8.33963 90.4144 8.99563 90.8944 9.84896C91.385 10.6916 91.6304 11.673 91.6304 12.793C91.6304 13.913 91.385 14.8943 90.8944 15.737C90.4144 16.569 89.7264 17.2143 88.8304 17.673C87.945 18.1316 86.9157 18.361 85.7424 18.361H81.8384V7.19296H85.7424ZM85.6624 16.457C86.8357 16.457 87.7424 16.137 88.3824 15.497C89.0224 14.857 89.3424 13.9556 89.3424 12.793C89.3424 11.6303 89.0224 10.7236 88.3824 10.073C87.7424 9.41163 86.8357 9.08096 85.6624 9.08096H84.0784V16.457H85.6624ZM95.5471 10.873C95.8351 10.4036 96.2085 10.0356 96.6671 9.76896C97.1365 9.50229 97.6698 9.36896 98.2671 9.36896V11.721H97.6751C96.9711 11.721 96.4378 11.8863 96.0751 12.217C95.7231 12.5476 95.5471 13.1236 95.5471 13.945V18.361H93.3071V9.49696H95.5471V10.873ZM100.912 8.44096C100.517 8.44096 100.187 8.3183 99.9199 8.07296C99.6639 7.81696 99.5359 7.50229 99.5359 7.12896C99.5359 6.75563 99.6639 6.44629 99.9199 6.20096C100.187 5.94496 100.517 5.81696 100.912 5.81696C101.307 5.81696 101.632 5.94496 101.888 6.20096C102.155 6.44629 102.288 6.75563 102.288 7.12896C102.288 7.50229 102.155 7.81696 101.888 8.07296C101.632 8.3183 101.307 8.44096 100.912 8.44096ZM102.016 9.49696V18.361H99.7759V9.49696H102.016ZM107.925 16.297L110.165 9.49696H112.549L109.269 18.361H106.549L103.285 9.49696H105.685L107.925 16.297ZM122.047 13.737C122.047 14.057 122.026 14.345 121.983 14.601H115.503C115.556 15.241 115.78 15.7423 116.175 16.105C116.57 16.4676 117.055 16.649 117.631 16.649C118.463 16.649 119.055 16.2916 119.407 15.577H121.823C121.567 16.4303 121.076 17.1343 120.351 17.689C119.626 18.233 118.735 18.505 117.679 18.505C116.826 18.505 116.058 18.3183 115.375 17.945C114.703 17.561 114.175 17.0223 113.791 16.329C113.418 15.6356 113.231 14.8356 113.231 13.929C113.231 13.0116 113.418 12.2063 113.791 11.513C114.164 10.8196 114.687 10.2863 115.359 9.91296C116.031 9.53963 116.804 9.35296 117.679 9.35296C118.522 9.35296 119.274 9.53429 119.935 9.89696C120.607 10.2596 121.124 10.777 121.487 11.449C121.86 12.1103 122.047 12.873 122.047 13.737ZM119.727 13.097C119.716 12.521 119.508 12.0623 119.103 11.721C118.698 11.369 118.202 11.193 117.615 11.193C117.06 11.193 116.591 11.3636 116.207 11.705C115.834 12.0356 115.604 12.4996 115.519 13.097H119.727Z" fill="black"/>
<defs>
<clipPath id="clip0_4228_1018">
<rect width="24" height="25.7219" fill="white"/>
</clipPath>
</defs>
</svg>
