<svg width="112" height="113" viewBox="0 0 112 113" fill="none" xmlns="http://www.w3.org/2000/svg">
<rect x="6.10352e-05" y="0.5" width="112" height="112" rx="16" fill="#ECF5FF"/>
<path d="M75.5001 48.5C75.5001 49.32 74.8201 50 74.0001 50H38.0001C37.1801 50 36.5001 49.32 36.5001 48.5C36.5001 47.68 37.1801 47 38.0001 47H40.0401L40.8001 43.38C41.5201 39.88 43.0201 36.66 48.9801 36.66H63.0201C68.9801 36.66 70.4801 39.88 71.2001 43.38L71.9601 47H74.0001C74.8201 47 75.5001 47.68 75.5001 48.5Z" fill="#1572D3"/>
<path d="M76.3602 59.82C76.0602 56.52 75.1802 53 68.7602 53H43.2402C36.8202 53 35.9602 56.52 35.6402 59.82L34.5202 72C34.3802 73.52 34.8802 75.04 35.9202 76.18C36.9802 77.34 38.4802 78 40.0802 78H43.8402C47.0802 78 47.7002 76.14 48.1002 74.92L48.5002 73.72C48.9602 72.34 49.0802 72 50.8802 72H61.1202C62.9202 72 62.9802 72.2 63.5002 73.72L63.9002 74.92C64.3002 76.14 64.9202 78 68.1602 78H71.9202C73.5002 78 75.0202 77.34 76.0802 76.18C77.1202 75.04 77.6202 73.52 77.4802 72L76.3602 59.82ZM50.0002 64H44.0002C43.1802 64 42.5002 63.32 42.5002 62.5C42.5002 61.68 43.1802 61 44.0002 61H50.0002C50.8202 61 51.5002 61.68 51.5002 62.5C51.5002 63.32 50.8202 64 50.0002 64ZM68.0002 64H62.0002C61.1802 64 60.5002 63.32 60.5002 62.5C60.5002 61.68 61.1802 61 62.0002 61H68.0002C68.8202 61 69.5002 61.68 69.5002 62.5C69.5002 63.32 68.8202 64 68.0002 64Z" fill="#1572D3"/>
</svg>
