<svg width="64" height="64" viewBox="0 0 64 64" fill="none" xmlns="http://www.w3.org/2000/svg">
<rect width="64" height="64" rx="16" fill="#ECF5FF"/>
<path d="M38.4699 36.83L38.8599 39.99C38.9599 40.82 38.0699 41.4 37.3599 40.97L33.8999 38.91C33.6599 38.77 33.5999 38.47 33.7299 38.23C34.2299 37.31 34.4999 36.27 34.4999 35.23C34.4999 31.57 31.3599 28.59 27.4999 28.59C26.7099 28.59 25.9399 28.71 25.2199 28.95C24.8499 29.07 24.4899 28.73 24.5799 28.35C25.4899 24.71 28.9899 22 33.1699 22C38.0499 22 41.9999 25.69 41.9999 30.24C41.9999 32.94 40.6099 35.33 38.4699 36.83Z" fill="#1572D3"/>
<path d="M33 35.2301C33 36.4201 32.56 37.5201 31.82 38.3901C30.83 39.5901 29.26 40.3601 27.5 40.3601L24.89 41.9101C24.45 42.1801 23.89 41.8101 23.95 41.3001L24.2 39.3301C22.86 38.4001 22 36.9101 22 35.2301C22 33.4701 22.94 31.9201 24.38 31.0001C25.27 30.4201 26.34 30.0901 27.5 30.0901C30.54 30.0901 33 32.3901 33 35.2301Z" fill="#1572D3"/>
</svg>
