<svg width="64" height="64" viewBox="0 0 64 64" fill="none" xmlns="http://www.w3.org/2000/svg">
<rect width="64" height="64" rx="16" fill="#ECF5FF"/>
<path d="M31.9402 22.2101L29.5302 27.8201H27.1202C26.7202 27.8201 26.3302 27.8501 25.9502 27.9301L26.9502 25.5301L26.9902 25.4401L27.0502 25.2801C27.0802 25.2101 27.1002 25.1501 27.1302 25.1001C28.2902 22.4101 29.5902 21.5701 31.9402 22.2101Z" fill="#1572D3"/>
<path d="M38.7301 28.09L38.7101 28.08C38.1101 27.91 37.5001 27.82 36.8801 27.82H30.6201L32.8701 22.59L32.9001 22.52C33.0401 22.57 33.1901 22.64 33.3401 22.69L35.5501 23.62C36.7801 24.13 37.6401 24.66 38.1701 25.3C38.2601 25.42 38.3401 25.53 38.4201 25.66C38.5101 25.8 38.5801 25.94 38.6201 26.09C38.6601 26.18 38.6901 26.26 38.7101 26.35C38.8601 26.86 38.8701 27.44 38.7301 28.09Z" fill="#1572D3"/>
<path d="M32.52 37.6601H32.77C33.07 37.6601 33.32 37.3901 33.32 37.0601C33.32 36.6401 33.2 36.5801 32.94 36.4801L32.52 36.3301V37.6601Z" fill="#1572D3"/>
<path d="M38.2902 29.5201C37.8402 29.3901 37.3702 29.3201 36.8802 29.3201H27.1202C26.4402 29.3201 25.8002 29.4501 25.2002 29.7101C23.4602 30.4601 22.2402 32.1901 22.2402 34.2001V36.1501C22.2402 36.3901 22.2602 36.6201 22.2902 36.8601C22.5102 40.0401 24.2102 41.7401 27.3902 41.9501C27.6202 41.9801 27.8502 42.0001 28.1002 42.0001H35.9002C39.6002 42.0001 41.5502 40.2401 41.7402 36.7401C41.7502 36.5501 41.7602 36.3501 41.7602 36.1501V34.2001C41.7602 31.9901 40.2902 30.1301 38.2902 29.5201ZM33.2802 35.5001C33.7402 35.6601 34.3602 36.0001 34.3602 37.0601C34.3602 37.9701 33.6502 38.7001 32.7702 38.7001H32.5202V38.9201C32.5202 39.2101 32.2902 39.4401 32.0002 39.4401C31.7102 39.4401 31.4802 39.2101 31.4802 38.9201V38.7001H31.3902C30.4302 38.7001 29.6402 37.8901 29.6402 36.8901C29.6402 36.6001 29.8702 36.3701 30.1602 36.3701C30.4502 36.3701 30.6802 36.6001 30.6802 36.8901C30.6802 37.3101 31.0002 37.6601 31.3902 37.6601H31.4802V35.9701L30.7202 35.7001C30.2602 35.5401 29.6402 35.2001 29.6402 34.1401C29.6402 33.2301 30.3502 32.5001 31.2302 32.5001H31.4802V32.2801C31.4802 31.9901 31.7102 31.7601 32.0002 31.7601C32.2902 31.7601 32.5202 31.9901 32.5202 32.2801V32.5001H32.6102C33.5702 32.5001 34.3602 33.3101 34.3602 34.3101C34.3602 34.6001 34.1302 34.8301 33.8402 34.8301C33.5502 34.8301 33.3202 34.6001 33.3202 34.3101C33.3202 33.8901 33.0002 33.5401 32.6102 33.5401H32.5202V35.2301L33.2802 35.5001Z" fill="#1572D3"/>
<path d="M30.6802 34.14C30.6802 34.56 30.8002 34.62 31.0602 34.72L31.4802 34.87V33.54H31.2302C30.9202 33.54 30.6802 33.81 30.6802 34.14Z" fill="#1572D3"/>
</svg>
