<svg width="112" height="113" viewBox="0 0 112 113" fill="none" xmlns="http://www.w3.org/2000/svg">
<rect x="6.10352e-05" y="0.5" width="112" height="112" rx="16" fill="#ECF5FF"/>
<path d="M73.2401 49.9C71.1601 40.64 63.0801 36.5 56.0001 36.5C56.0001 36.5 56.0001 36.5 55.9801 36.5C48.9201 36.5 40.8601 40.64 38.76 49.88C36.4 60.2 42.7201 68.94 48.4401 74.46C50.5601 76.5 53.2801 77.52 56.0001 77.52C58.7201 77.52 61.4401 76.5 63.5401 74.46C69.2601 68.94 75.5801 60.22 73.2401 49.9ZM62.5601 51.56L54.5601 59.56C54.2601 59.86 53.8801 60 53.5001 60C53.1201 60 52.7401 59.86 52.4401 59.56L49.4401 56.56C48.8601 55.98 48.8601 55.02 49.4401 54.44C50.0201 53.86 50.9801 53.86 51.5601 54.44L53.5001 56.38L60.4401 49.44C61.0201 48.86 61.9801 48.86 62.5601 49.44C63.1401 50.02 63.1401 50.98 62.5601 51.56Z" fill="#1572D3"/>
</svg>
