<svg width="112" height="113" viewBox="0 0 112 113" fill="none" xmlns="http://www.w3.org/2000/svg">
<rect x="6.10352e-05" y="0.5" width="112" height="112" rx="16" fill="#ECF5FF"/>
<path d="M65.5001 39.62V36.5C65.5001 35.68 64.8201 35 64.0001 35C63.1801 35 62.5001 35.68 62.5001 36.5V39.5H49.5001V36.5C49.5001 35.68 48.8201 35 48.0001 35C47.1801 35 46.5001 35.68 46.5001 36.5V39.62C41.1001 40.12 38.4801 43.34 38.0801 48.12C38.0401 48.7 38.5201 49.18 39.0801 49.18H72.9201C73.5001 49.18 73.9801 48.68 73.9201 48.12C73.5201 43.34 70.9001 40.12 65.5001 39.62Z" fill="#1572D3"/>
<path d="M72.0001 52.1801H40.0001C38.9001 52.1801 38.0001 53.0801 38.0001 54.1801V66.5001C38.0001 72.5001 41.0001 76.5001 48.0001 76.5001H64.0001C71.0001 76.5001 74.0001 72.5001 74.0001 66.5001V54.1801C74.0001 53.0801 73.1001 52.1801 72.0001 52.1801ZM50.4201 68.9201C50.3201 69.0001 50.2201 69.1001 50.1201 69.1601C50.0001 69.2401 49.8801 69.3001 49.7601 69.3401C49.6401 69.4001 49.5201 69.4401 49.4001 69.4601C49.2601 69.4801 49.1401 69.5001 49.0001 69.5001C48.7401 69.5001 48.4801 69.4401 48.2401 69.3401C47.9801 69.2401 47.7801 69.1001 47.5801 68.9201C47.2201 68.5401 47.0001 68.0201 47.0001 67.5001C47.0001 66.9801 47.2201 66.4601 47.5801 66.0801C47.7801 65.9001 47.9801 65.7601 48.2401 65.6601C48.6001 65.5001 49.0001 65.4601 49.4001 65.5401C49.5201 65.5601 49.6401 65.6001 49.7601 65.6601C49.8801 65.7001 50.0001 65.7601 50.1201 65.8401C50.2201 65.9201 50.3201 66.0001 50.4201 66.0801C50.7801 66.4601 51.0001 66.9801 51.0001 67.5001C51.0001 68.0201 50.7801 68.5401 50.4201 68.9201ZM50.4201 61.9201C50.0401 62.2801 49.5201 62.5001 49.0001 62.5001C48.4801 62.5001 47.9601 62.2801 47.5801 61.9201C47.2201 61.5401 47.0001 61.0201 47.0001 60.5001C47.0001 59.9801 47.2201 59.4601 47.5801 59.0801C48.1401 58.5201 49.0201 58.3401 49.7601 58.6601C50.0201 58.7601 50.2401 58.9001 50.4201 59.0801C50.7801 59.4601 51.0001 59.9801 51.0001 60.5001C51.0001 61.0201 50.7801 61.5401 50.4201 61.9201ZM57.4201 68.9201C57.0401 69.2801 56.5201 69.5001 56.0001 69.5001C55.4801 69.5001 54.9601 69.2801 54.5801 68.9201C54.2201 68.5401 54.0001 68.0201 54.0001 67.5001C54.0001 66.9801 54.2201 66.4601 54.5801 66.0801C55.3201 65.3401 56.6801 65.3401 57.4201 66.0801C57.7801 66.4601 58.0001 66.9801 58.0001 67.5001C58.0001 68.0201 57.7801 68.5401 57.4201 68.9201ZM57.4201 61.9201C57.3201 62.0001 57.2201 62.0801 57.1201 62.1601C57.0001 62.2401 56.8801 62.3001 56.7601 62.3401C56.6401 62.4001 56.5201 62.4401 56.4001 62.4601C56.2601 62.4801 56.1401 62.5001 56.0001 62.5001C55.4801 62.5001 54.9601 62.2801 54.5801 61.9201C54.2201 61.5401 54.0001 61.0201 54.0001 60.5001C54.0001 59.9801 54.2201 59.4601 54.5801 59.0801C54.7601 58.9001 54.9801 58.7601 55.2401 58.6601C55.9801 58.3401 56.8601 58.5201 57.4201 59.0801C57.7801 59.4601 58.0001 59.9801 58.0001 60.5001C58.0001 61.0201 57.7801 61.5401 57.4201 61.9201ZM64.4201 68.9201C64.0401 69.2801 63.5201 69.5001 63.0001 69.5001C62.4801 69.5001 61.9601 69.2801 61.5801 68.9201C61.2201 68.5401 61.0001 68.0201 61.0001 67.5001C61.0001 66.9801 61.2201 66.4601 61.5801 66.0801C62.3201 65.3401 63.6801 65.3401 64.4201 66.0801C64.7801 66.4601 65.0001 66.9801 65.0001 67.5001C65.0001 68.0201 64.7801 68.5401 64.4201 68.9201ZM64.4201 61.9201C64.3201 62.0001 64.2201 62.0801 64.1201 62.1601C64.0001 62.2401 63.8801 62.3001 63.7601 62.3401C63.6401 62.4001 63.5201 62.4401 63.4001 62.4601C63.2601 62.4801 63.1201 62.5001 63.0001 62.5001C62.4801 62.5001 61.9601 62.2801 61.5801 61.9201C61.2201 61.5401 61.0001 61.0201 61.0001 60.5001C61.0001 59.9801 61.2201 59.4601 61.5801 59.0801C61.7801 58.9001 61.9801 58.7601 62.2401 58.6601C62.6001 58.5001 63.0001 58.4601 63.4001 58.5401C63.5201 58.5601 63.6401 58.6001 63.7601 58.6601C63.8801 58.7001 64.0001 58.7601 64.1201 58.8401C64.2201 58.9201 64.3201 59.0001 64.4201 59.0801C64.7801 59.4601 65.0001 59.9801 65.0001 60.5001C65.0001 61.0201 64.7801 61.5401 64.4201 61.9201Z" fill="#1572D3"/>
</svg>
