<svg width="64" height="64" viewBox="0 0 64 64" fill="none" xmlns="http://www.w3.org/2000/svg">
<rect width="64" height="64" rx="16" fill="#ECF5FF"/>
<path d="M31.94 22.21L29.53 27.82H27.12C26.72 27.82 26.33 27.85 25.95 27.93L26.95 25.53L26.99 25.44L27.05 25.28C27.08 25.21 27.1 25.15 27.13 25.1C28.29 22.41 29.59 21.57 31.94 22.21Z" fill="#1572D3"/>
<path d="M38.73 28.09L38.71 28.08C38.11 27.91 37.5 27.82 36.88 27.82H30.62L32.87 22.59L32.9 22.52C33.04 22.57 33.19 22.64 33.34 22.69L35.55 23.62C36.78 24.13 37.64 24.66 38.17 25.3C38.26 25.42 38.34 25.53 38.42 25.66C38.51 25.8 38.58 25.94 38.62 26.09C38.66 26.18 38.69 26.26 38.71 26.35C38.86 26.86 38.87 27.44 38.73 28.09Z" fill="#1572D3"/>
<path d="M32.52 37.66H32.77C33.07 37.66 33.32 37.39 33.32 37.06C33.32 36.64 33.2 36.58 32.94 36.48L32.52 36.33V37.66Z" fill="#1572D3"/>
<path d="M38.29 29.52C37.84 29.39 37.37 29.32 36.88 29.32H27.12C26.44 29.32 25.8 29.45 25.2 29.71C23.46 30.46 22.24 32.19 22.24 34.2V36.15C22.24 36.39 22.26 36.62 22.29 36.86C22.51 40.04 24.21 41.74 27.39 41.95C27.62 41.98 27.85 42 28.1 42H35.9C39.6 42 41.55 40.24 41.74 36.74C41.75 36.55 41.76 36.35 41.76 36.15V34.2C41.76 31.99 40.29 30.13 38.29 29.52ZM33.28 35.5C33.74 35.66 34.36 36 34.36 37.06C34.36 37.97 33.65 38.7 32.77 38.7H32.52V38.92C32.52 39.21 32.29 39.44 32 39.44C31.71 39.44 31.48 39.21 31.48 38.92V38.7H31.39C30.43 38.7 29.64 37.89 29.64 36.89C29.64 36.6 29.87 36.37 30.16 36.37C30.45 36.37 30.68 36.6 30.68 36.89C30.68 37.31 31 37.66 31.39 37.66H31.48V35.97L30.72 35.7C30.26 35.54 29.64 35.2 29.64 34.14C29.64 33.23 30.35 32.5 31.23 32.5H31.48V32.28C31.48 31.99 31.71 31.76 32 31.76C32.29 31.76 32.52 31.99 32.52 32.28V32.5H32.61C33.57 32.5 34.36 33.31 34.36 34.31C34.36 34.6 34.13 34.83 33.84 34.83C33.55 34.83 33.32 34.6 33.32 34.31C33.32 33.89 33 33.54 32.61 33.54H32.52V35.23L33.28 35.5Z" fill="#1572D3"/>
<path d="M30.68 34.14C30.68 34.56 30.8 34.62 31.06 34.72L31.48 34.87V33.54H31.23C30.92 33.54 30.68 33.81 30.68 34.14Z" fill="#1572D3"/>
</svg>
