<svg width="16" height="14" viewBox="0 0 16 14" fill="none" xmlns="http://www.w3.org/2000/svg">
<path d="M7.55163 0.408492C7.73504 0.0368689 8.26496 0.0368701 8.44837 0.408493L10.2348 4.02821C10.3076 4.17578 10.4484 4.27807 10.6113 4.30173L14.6059 4.88218C15.016 4.94177 15.1797 5.44576 14.883 5.73503L11.9925 8.55258C11.8746 8.66745 11.8208 8.83295 11.8487 8.99515L12.531 12.9736C12.6011 13.3821 12.1724 13.6935 11.8055 13.5007L8.23267 11.6223C8.08701 11.5457 7.91299 11.5457 7.76733 11.6223L4.19445 13.5007C3.82764 13.6935 3.39892 13.3821 3.46898 12.9736L4.15134 8.99515C4.17916 8.83295 4.12538 8.66745 4.00754 8.55258L1.11702 5.73503C0.820263 5.44576 0.984019 4.94177 1.39413 4.88218L5.38873 4.30173C5.55158 4.27807 5.69236 4.17578 5.76519 4.02821L7.55163 0.408492Z" fill="#EFBF14"/>
</svg>
